<mxfile host="app.diagrams.net" modified="2023-12-12T09:56:01.026Z" agent="Mozilla/5.0 (Windows NT 10.0; Win64; x64) AppleWebKit/537.36 (KHTML, like Gecko) Chrome/120.0.0.0 Safari/537.36" etag="grx3JmcsB3Bz_zQ6hZfR" version="22.1.7" type="device">
  <diagram name="Página-1" id="ChRLvXx9EgfWSsnoXOM4">
    <mxGraphModel dx="548" dy="298" grid="1" gridSize="10" guides="1" tooltips="1" connect="1" arrows="1" fold="1" page="1" pageScale="1" pageWidth="827" pageHeight="1169" math="0" shadow="0">
      <root>
        <mxCell id="0" />
        <mxCell id="1" parent="0" />
        <mxCell id="VjbsXSz77U3CHJnNVpOk-10" style="edgeStyle=orthogonalEdgeStyle;rounded=0;orthogonalLoop=1;jettySize=auto;html=1;entryX=1;entryY=0.5;entryDx=0;entryDy=0;" edge="1" parent="1" source="VjbsXSz77U3CHJnNVpOk-1" target="VjbsXSz77U3CHJnNVpOk-9">
          <mxGeometry relative="1" as="geometry" />
        </mxCell>
        <mxCell id="VjbsXSz77U3CHJnNVpOk-12" style="edgeStyle=orthogonalEdgeStyle;rounded=0;orthogonalLoop=1;jettySize=auto;html=1;" edge="1" parent="1" source="VjbsXSz77U3CHJnNVpOk-1" target="VjbsXSz77U3CHJnNVpOk-3">
          <mxGeometry relative="1" as="geometry" />
        </mxCell>
        <mxCell id="VjbsXSz77U3CHJnNVpOk-17" style="edgeStyle=orthogonalEdgeStyle;rounded=0;orthogonalLoop=1;jettySize=auto;html=1;entryX=0.5;entryY=0;entryDx=0;entryDy=0;" edge="1" parent="1" source="VjbsXSz77U3CHJnNVpOk-1" target="VjbsXSz77U3CHJnNVpOk-5">
          <mxGeometry relative="1" as="geometry" />
        </mxCell>
        <mxCell id="VjbsXSz77U3CHJnNVpOk-1" value="&lt;font style=&quot;vertical-align: inherit;&quot;&gt;&lt;font style=&quot;vertical-align: inherit;&quot;&gt;&lt;font style=&quot;vertical-align: inherit;&quot;&gt;&lt;font style=&quot;vertical-align: inherit;&quot;&gt;CPU&lt;/font&gt;&lt;/font&gt;&lt;/font&gt;&lt;/font&gt;" style="whiteSpace=wrap;html=1;aspect=fixed;" vertex="1" parent="1">
          <mxGeometry x="380" y="200" width="80" height="80" as="geometry" />
        </mxCell>
        <mxCell id="VjbsXSz77U3CHJnNVpOk-15" style="edgeStyle=orthogonalEdgeStyle;rounded=0;orthogonalLoop=1;jettySize=auto;html=1;entryX=0.5;entryY=1;entryDx=0;entryDy=0;" edge="1" parent="1" source="VjbsXSz77U3CHJnNVpOk-2" target="VjbsXSz77U3CHJnNVpOk-5">
          <mxGeometry relative="1" as="geometry" />
        </mxCell>
        <mxCell id="VjbsXSz77U3CHJnNVpOk-2" value="&lt;font style=&quot;vertical-align: inherit;&quot;&gt;&lt;font style=&quot;vertical-align: inherit;&quot;&gt;&lt;font style=&quot;vertical-align: inherit;&quot;&gt;&lt;font style=&quot;vertical-align: inherit;&quot;&gt;&lt;font style=&quot;vertical-align: inherit;&quot;&gt;&lt;font style=&quot;vertical-align: inherit;&quot;&gt;Memória de massa&lt;/font&gt;&lt;/font&gt;&lt;/font&gt;&lt;/font&gt;&lt;/font&gt;&lt;/font&gt;" style="rounded=0;whiteSpace=wrap;html=1;" vertex="1" parent="1">
          <mxGeometry x="360" y="350" width="120" height="60" as="geometry" />
        </mxCell>
        <mxCell id="VjbsXSz77U3CHJnNVpOk-13" style="edgeStyle=orthogonalEdgeStyle;rounded=0;orthogonalLoop=1;jettySize=auto;html=1;" edge="1" parent="1" source="VjbsXSz77U3CHJnNVpOk-3">
          <mxGeometry relative="1" as="geometry">
            <mxPoint x="420" y="200.00000000000006" as="targetPoint" />
          </mxGeometry>
        </mxCell>
        <mxCell id="VjbsXSz77U3CHJnNVpOk-3" value="&lt;font style=&quot;vertical-align: inherit;&quot;&gt;&lt;font style=&quot;vertical-align: inherit;&quot;&gt;&lt;font style=&quot;vertical-align: inherit;&quot;&gt;&lt;font style=&quot;vertical-align: inherit;&quot;&gt;Memória RAM&amp;nbsp; e ROM&lt;/font&gt;&lt;/font&gt;&lt;/font&gt;&lt;/font&gt;" style="rounded=0;whiteSpace=wrap;html=1;" vertex="1" parent="1">
          <mxGeometry x="360" y="110" width="120" height="60" as="geometry" />
        </mxCell>
        <mxCell id="VjbsXSz77U3CHJnNVpOk-14" style="edgeStyle=orthogonalEdgeStyle;rounded=0;orthogonalLoop=1;jettySize=auto;html=1;entryX=0.5;entryY=0;entryDx=0;entryDy=0;" edge="1" parent="1" source="VjbsXSz77U3CHJnNVpOk-5" target="VjbsXSz77U3CHJnNVpOk-2">
          <mxGeometry relative="1" as="geometry" />
        </mxCell>
        <mxCell id="VjbsXSz77U3CHJnNVpOk-16" style="edgeStyle=orthogonalEdgeStyle;rounded=0;orthogonalLoop=1;jettySize=auto;html=1;entryX=0.5;entryY=1;entryDx=0;entryDy=0;" edge="1" parent="1" source="VjbsXSz77U3CHJnNVpOk-5" target="VjbsXSz77U3CHJnNVpOk-1">
          <mxGeometry relative="1" as="geometry" />
        </mxCell>
        <mxCell id="VjbsXSz77U3CHJnNVpOk-5" value="&lt;font style=&quot;vertical-align: inherit;&quot;&gt;&lt;font style=&quot;vertical-align: inherit;&quot;&gt;Controladores de disco&lt;br&gt;&lt;/font&gt;&lt;/font&gt;" style="rounded=0;whiteSpace=wrap;html=1;" vertex="1" parent="1">
          <mxGeometry x="345" y="300" width="150" height="30" as="geometry" />
        </mxCell>
        <mxCell id="VjbsXSz77U3CHJnNVpOk-7" value="" style="endArrow=none;html=1;rounded=0;" edge="1" parent="1">
          <mxGeometry width="50" height="50" relative="1" as="geometry">
            <mxPoint x="310" y="290" as="sourcePoint" />
            <mxPoint x="310" y="190" as="targetPoint" />
          </mxGeometry>
        </mxCell>
        <mxCell id="VjbsXSz77U3CHJnNVpOk-8" value="&lt;font style=&quot;vertical-align: inherit;&quot;&gt;&lt;font style=&quot;vertical-align: inherit;&quot;&gt;&lt;font style=&quot;vertical-align: inherit;&quot;&gt;&lt;font style=&quot;vertical-align: inherit;&quot;&gt;Barramento&lt;/font&gt;&lt;/font&gt;&lt;br&gt;&lt;/font&gt;&lt;/font&gt;" style="text;html=1;strokeColor=none;fillColor=none;align=center;verticalAlign=middle;whiteSpace=wrap;rounded=0;rotation=0;" vertex="1" parent="1">
          <mxGeometry x="280" y="160" width="60" height="30" as="geometry" />
        </mxCell>
        <mxCell id="VjbsXSz77U3CHJnNVpOk-11" style="edgeStyle=orthogonalEdgeStyle;rounded=0;orthogonalLoop=1;jettySize=auto;html=1;entryX=0;entryY=0.5;entryDx=0;entryDy=0;" edge="1" parent="1" source="VjbsXSz77U3CHJnNVpOk-9" target="VjbsXSz77U3CHJnNVpOk-1">
          <mxGeometry relative="1" as="geometry" />
        </mxCell>
        <mxCell id="VjbsXSz77U3CHJnNVpOk-9" value="&lt;font style=&quot;vertical-align: inherit;&quot;&gt;&lt;font style=&quot;vertical-align: inherit;&quot;&gt;Entradas / Saidas&lt;/font&gt;&lt;/font&gt;" style="rounded=0;whiteSpace=wrap;html=1;" vertex="1" parent="1">
          <mxGeometry x="120" y="210" width="120" height="60" as="geometry" />
        </mxCell>
      </root>
    </mxGraphModel>
  </diagram>
</mxfile>
